<mxfile host="www.draw.io" modified="2019-11-23T04:37:39.407Z" agent="Mozilla/5.0 (Windows NT 10.0; Win64; x64) AppleWebKit/537.36 (KHTML, like Gecko) Chrome/78.0.3904.108 Safari/537.36" etag="tPjr8uFnjD0HPqG1iKyy" version="12.2.9" type="github" pages="1">
  <diagram name="Page-1" id="e7e014a7-5840-1c2e-5031-d8a46d1fe8dd">
    <mxGraphModel dx="1094" dy="507" grid="1" gridSize="10" guides="1" tooltips="1" connect="1" arrows="1" fold="1" page="1" pageScale="1" pageWidth="1169" pageHeight="826" background="#ffffff" math="0" shadow="0">
      <root>
        <mxCell id="0"/>
        <mxCell id="1" parent="0"/>
        <mxCell id="2" value="Coordenação dos Cursos" style="swimlane;whiteSpace=wrap" parent="1" vertex="1">
          <mxGeometry x="164" y="20" width="280" height="772" as="geometry"/>
        </mxCell>
        <mxCell id="5" value="" style="ellipse;shape=startState;fillColor=#000000;strokeColor=#ff0000;" parent="2" vertex="1">
          <mxGeometry x="125" y="32" width="30" height="30" as="geometry"/>
        </mxCell>
        <mxCell id="6" value="" style="edgeStyle=elbowEdgeStyle;elbow=horizontal;verticalAlign=bottom;endArrow=open;endSize=8;strokeColor=#FF0000;endFill=1;rounded=0;entryX=0.5;entryY=0;entryDx=0;entryDy=0;" parent="2" source="5" target="u4yT-pGp6C20VgRw0iH_-41" edge="1">
          <mxGeometry x="100" y="40" as="geometry">
            <mxPoint x="115.5" y="122" as="targetPoint"/>
          </mxGeometry>
        </mxCell>
        <mxCell id="9" value="" style="endArrow=open;strokeColor=#FF0000;endFill=1;rounded=0;exitX=0.5;exitY=1;exitDx=0;exitDy=0;entryX=0.5;entryY=0;entryDx=0;entryDy=0;" parent="2" source="u4yT-pGp6C20VgRw0iH_-41" target="u4yT-pGp6C20VgRw0iH_-42" edge="1">
          <mxGeometry relative="1" as="geometry">
            <mxPoint x="115" y="160" as="sourcePoint"/>
            <mxPoint x="120.5" y="220" as="targetPoint"/>
          </mxGeometry>
        </mxCell>
        <mxCell id="u4yT-pGp6C20VgRw0iH_-41" value="Recebem documentações dos alunos" style="rounded=1;whiteSpace=wrap;html=1;" parent="2" vertex="1">
          <mxGeometry x="80" y="84.5" width="120" height="60" as="geometry"/>
        </mxCell>
        <mxCell id="u4yT-pGp6C20VgRw0iH_-42" value="Enviam seus malotes para o LARE" style="rounded=1;whiteSpace=wrap;html=1;" parent="2" vertex="1">
          <mxGeometry x="80" y="167" width="120" height="60" as="geometry"/>
        </mxCell>
        <mxCell id="u4yT-pGp6C20VgRw0iH_-104" value="" style="edgeStyle=orthogonalEdgeStyle;rounded=0;orthogonalLoop=1;jettySize=auto;html=1;strokeColor=#FF0000;" parent="2" source="u4yT-pGp6C20VgRw0iH_-99" target="u4yT-pGp6C20VgRw0iH_-103" edge="1">
          <mxGeometry relative="1" as="geometry"/>
        </mxCell>
        <mxCell id="u4yT-pGp6C20VgRw0iH_-99" value="Solicita que o aluno regularize documentação" style="rounded=1;whiteSpace=wrap;html=1;" parent="2" vertex="1">
          <mxGeometry x="80" y="390" width="120" height="60" as="geometry"/>
        </mxCell>
        <mxCell id="u4yT-pGp6C20VgRw0iH_-106" value="" style="edgeStyle=orthogonalEdgeStyle;rounded=0;orthogonalLoop=1;jettySize=auto;html=1;strokeColor=#FF0000;" parent="2" source="u4yT-pGp6C20VgRw0iH_-103" target="u4yT-pGp6C20VgRw0iH_-105" edge="1">
          <mxGeometry relative="1" as="geometry"/>
        </mxCell>
        <mxCell id="u4yT-pGp6C20VgRw0iH_-103" value="Recebe atualização de documentos" style="rounded=1;whiteSpace=wrap;html=1;" parent="2" vertex="1">
          <mxGeometry x="80" y="477" width="120" height="60" as="geometry"/>
        </mxCell>
        <mxCell id="u4yT-pGp6C20VgRw0iH_-105" value="Envia malote para o LARE" style="rounded=1;whiteSpace=wrap;html=1;" parent="2" vertex="1">
          <mxGeometry x="80" y="567" width="120" height="60" as="geometry"/>
        </mxCell>
        <mxCell id="3" value="LARE" style="swimlane;whiteSpace=wrap" parent="1" vertex="1">
          <mxGeometry x="444" y="20" width="280" height="772" as="geometry"/>
        </mxCell>
        <mxCell id="u4yT-pGp6C20VgRw0iH_-71" value="" style="edgeStyle=orthogonalEdgeStyle;rounded=0;orthogonalLoop=1;jettySize=auto;html=1;strokeColor=#FF0000;" parent="3" source="u4yT-pGp6C20VgRw0iH_-62" target="u4yT-pGp6C20VgRw0iH_-70" edge="1">
          <mxGeometry relative="1" as="geometry"/>
        </mxCell>
        <mxCell id="u4yT-pGp6C20VgRw0iH_-62" value="Recebe documentação para digitalizar" style="rounded=1;whiteSpace=wrap;html=1;" parent="3" vertex="1">
          <mxGeometry x="79.5" y="172" width="120" height="60" as="geometry"/>
        </mxCell>
        <mxCell id="u4yT-pGp6C20VgRw0iH_-75" value="" style="edgeStyle=orthogonalEdgeStyle;rounded=0;orthogonalLoop=1;jettySize=auto;html=1;strokeColor=#FF0000;" parent="3" source="u4yT-pGp6C20VgRw0iH_-70" target="u4yT-pGp6C20VgRw0iH_-74" edge="1">
          <mxGeometry relative="1" as="geometry"/>
        </mxCell>
        <mxCell id="u4yT-pGp6C20VgRw0iH_-70" value="Digitalização dos documentos" style="rounded=1;whiteSpace=wrap;html=1;" parent="3" vertex="1">
          <mxGeometry x="79.5" y="262" width="120" height="60" as="geometry"/>
        </mxCell>
        <mxCell id="u4yT-pGp6C20VgRw0iH_-74" value="Envia as mídias digitais&amp;nbsp;" style="rounded=1;whiteSpace=wrap;html=1;" parent="3" vertex="1">
          <mxGeometry x="79.5" y="352" width="120" height="60" as="geometry"/>
        </mxCell>
        <mxCell id="u4yT-pGp6C20VgRw0iH_-43" value="PROGRAD" style="swimlane;whiteSpace=wrap" parent="1" vertex="1">
          <mxGeometry x="724" y="20" width="280" height="772" as="geometry"/>
        </mxCell>
        <mxCell id="u4yT-pGp6C20VgRw0iH_-76" value="Recebe os arquivos" style="rounded=1;whiteSpace=wrap;html=1;" parent="u4yT-pGp6C20VgRw0iH_-43" vertex="1">
          <mxGeometry x="80" y="160" width="120" height="60" as="geometry"/>
        </mxCell>
        <mxCell id="u4yT-pGp6C20VgRw0iH_-97" value="" style="edgeStyle=orthogonalEdgeStyle;rounded=0;orthogonalLoop=1;jettySize=auto;html=1;strokeColor=#FF0000;" parent="u4yT-pGp6C20VgRw0iH_-43" source="u4yT-pGp6C20VgRw0iH_-80" edge="1">
          <mxGeometry relative="1" as="geometry">
            <mxPoint x="140" y="480" as="targetPoint"/>
          </mxGeometry>
        </mxCell>
        <mxCell id="u4yT-pGp6C20VgRw0iH_-80" value="Realiza pesquisa nos diretórios&amp;nbsp;" style="rounded=1;whiteSpace=wrap;html=1;" parent="u4yT-pGp6C20VgRw0iH_-43" vertex="1">
          <mxGeometry x="80" y="340" width="120" height="60" as="geometry"/>
        </mxCell>
        <mxCell id="u4yT-pGp6C20VgRw0iH_-78" value="Cria/Atualiza diretório interno" style="rounded=1;whiteSpace=wrap;html=1;" parent="u4yT-pGp6C20VgRw0iH_-43" vertex="1">
          <mxGeometry x="80" y="250" width="120" height="60" as="geometry"/>
        </mxCell>
        <mxCell id="u4yT-pGp6C20VgRw0iH_-81" value="" style="edgeStyle=orthogonalEdgeStyle;rounded=0;orthogonalLoop=1;jettySize=auto;html=1;strokeColor=#FF0000;" parent="u4yT-pGp6C20VgRw0iH_-43" source="u4yT-pGp6C20VgRw0iH_-78" target="u4yT-pGp6C20VgRw0iH_-80" edge="1">
          <mxGeometry relative="1" as="geometry"/>
        </mxCell>
        <mxCell id="u4yT-pGp6C20VgRw0iH_-87" value="" style="edgeStyle=orthogonalEdgeStyle;rounded=0;orthogonalLoop=1;jettySize=auto;html=1;strokeColor=#FF0000;" parent="u4yT-pGp6C20VgRw0iH_-43" source="u4yT-pGp6C20VgRw0iH_-76" target="u4yT-pGp6C20VgRw0iH_-78" edge="1">
          <mxGeometry relative="1" as="geometry"/>
        </mxCell>
        <mxCell id="u4yT-pGp6C20VgRw0iH_-93" value="Entregou Certificado de Conclusão do Ensino Médio" style="rhombus;whiteSpace=wrap;html=1;fillColor=#ffffc0;strokeColor=#ff0000;" parent="u4yT-pGp6C20VgRw0iH_-43" vertex="1">
          <mxGeometry x="80" y="440" width="120" height="70" as="geometry"/>
        </mxCell>
        <mxCell id="u4yT-pGp6C20VgRw0iH_-101" value="" style="edgeStyle=orthogonalEdgeStyle;rounded=0;orthogonalLoop=1;jettySize=auto;html=1;strokeColor=#FF0000;entryX=0.5;entryY=0;entryDx=0;entryDy=0;" parent="u4yT-pGp6C20VgRw0iH_-43" source="u4yT-pGp6C20VgRw0iH_-98" target="u4yT-pGp6C20VgRw0iH_-102" edge="1">
          <mxGeometry relative="1" as="geometry">
            <mxPoint x="140" y="710" as="targetPoint"/>
          </mxGeometry>
        </mxCell>
        <mxCell id="u4yT-pGp6C20VgRw0iH_-98" value="Autoriza colação de grau do aluno" style="rounded=1;whiteSpace=wrap;html=1;" parent="u4yT-pGp6C20VgRw0iH_-43" vertex="1">
          <mxGeometry x="80" y="570" width="120" height="60" as="geometry"/>
        </mxCell>
        <mxCell id="u4yT-pGp6C20VgRw0iH_-94" value="no" style="edgeStyle=orthogonalEdgeStyle;html=1;align=left;verticalAlign=bottom;endArrow=open;endSize=8;strokeColor=#ff0000;entryX=0.5;entryY=0;entryDx=0;entryDy=0;" parent="u4yT-pGp6C20VgRw0iH_-43" source="u4yT-pGp6C20VgRw0iH_-93" target="u4yT-pGp6C20VgRw0iH_-98" edge="1">
          <mxGeometry x="-1" y="-86" relative="1" as="geometry">
            <mxPoint x="140" y="570" as="targetPoint"/>
            <mxPoint x="2" y="-20" as="offset"/>
          </mxGeometry>
        </mxCell>
        <mxCell id="u4yT-pGp6C20VgRw0iH_-102" value="" style="ellipse;html=1;shape=endState;fillColor=#000000;strokeColor=#ff0000;" parent="u4yT-pGp6C20VgRw0iH_-43" vertex="1">
          <mxGeometry x="125" y="670" width="30" height="30" as="geometry"/>
        </mxCell>
        <mxCell id="u4yT-pGp6C20VgRw0iH_-90" value="" style="html=1;verticalAlign=bottom;endArrow=open;dashed=1;endSize=8;strokeColor=#FF0000;exitX=1;exitY=0.5;exitDx=0;exitDy=0;entryX=0;entryY=0.5;entryDx=0;entryDy=0;" parent="1" source="u4yT-pGp6C20VgRw0iH_-42" target="u4yT-pGp6C20VgRw0iH_-62" edge="1">
          <mxGeometry relative="1" as="geometry">
            <mxPoint x="348" y="222" as="sourcePoint"/>
            <mxPoint x="164" y="810" as="targetPoint"/>
          </mxGeometry>
        </mxCell>
        <mxCell id="u4yT-pGp6C20VgRw0iH_-91" value="" style="html=1;verticalAlign=bottom;endArrow=open;dashed=1;endSize=8;strokeColor=#FF0000;entryX=0;entryY=0.5;entryDx=0;entryDy=0;exitX=1;exitY=0.5;exitDx=0;exitDy=0;" parent="1" source="u4yT-pGp6C20VgRw0iH_-74" target="u4yT-pGp6C20VgRw0iH_-76" edge="1">
          <mxGeometry relative="1" as="geometry">
            <mxPoint x="620" y="350" as="sourcePoint"/>
            <mxPoint x="533.5" y="232" as="targetPoint"/>
          </mxGeometry>
        </mxCell>
        <mxCell id="u4yT-pGp6C20VgRw0iH_-95" value="yes" style="edgeStyle=orthogonalEdgeStyle;html=1;align=left;verticalAlign=top;endArrow=open;endSize=8;strokeColor=#ff0000;entryX=1;entryY=0.5;entryDx=0;entryDy=0;" parent="1" source="u4yT-pGp6C20VgRw0iH_-93" target="u4yT-pGp6C20VgRw0iH_-99" edge="1">
          <mxGeometry x="-1" y="55" relative="1" as="geometry">
            <mxPoint x="330" y="495" as="targetPoint"/>
            <mxPoint x="46" y="-25" as="offset"/>
          </mxGeometry>
        </mxCell>
        <mxCell id="u4yT-pGp6C20VgRw0iH_-107" value="" style="html=1;verticalAlign=bottom;endArrow=open;dashed=1;endSize=8;strokeColor=#FF0000;exitX=0;exitY=0.5;exitDx=0;exitDy=0;entryX=0;entryY=0.5;entryDx=0;entryDy=0;" parent="1" source="u4yT-pGp6C20VgRw0iH_-105" target="u4yT-pGp6C20VgRw0iH_-62" edge="1">
          <mxGeometry relative="1" as="geometry">
            <mxPoint x="374" y="230" as="sourcePoint"/>
            <mxPoint x="533.5" y="232" as="targetPoint"/>
            <Array as="points">
              <mxPoint x="210" y="617"/>
              <mxPoint x="210" y="330"/>
            </Array>
          </mxGeometry>
        </mxCell>
      </root>
    </mxGraphModel>
  </diagram>
</mxfile>
